PathFileType  4	(X/Y/Z) C:\Users\antoi\Documents\MyRepositories\mobilecap\ResultsAnalysis
DataRate	CameraRate	NumFrames	NumMarkers	Units	OrigDataRate	OrigDataStartFrame	OrigNumFrames
100.0	100.0	4	51	mm	100.0	657	1312
Frame#	Time	r_knee			r_shank_antsup			r_ankle			r_calc			r_5meta			r_toe			L_knee			L_shank_antsup			L_ankle			L_calc			L_5meta			L_toe			r_sh2			r_sh3			r_sh4			L_sh2			L_sh3			r_thigh1			r_thigh2			r_thigh3			r_thigh4			r_thigh5			L_thigh1			L_thigh2			L_thigh3			L_thigh4			r.ASIS			r.PSIS			L.ASIS			L.PSIS			C7			R_Shoulder			L_Shoulder			R_Sternum			L_Sternum			R_humerus			R_elbow_med			R_elbow_lat			R_forearm			R_wrist_radius			R_wrist_ulna			L_humerus			L_elbow_med			L_elbow_lat			L_forearm			L_wrist_radius			L_wrist_ulna			R_HJC			L_HJC			R_HJC_reg			L_HJC_reg			
		X1	Y1	Z1	X2	Y2	Z2	X3	Y3	Z3	X4	Y4	Z4	X5	Y5	Z5	X6	Y6	Z6	X7	Y7	Z7	X8	Y8	Z8	X9	Y9	Z9	X10	Y10	Z10	X11	Y11	Z11	X12	Y12	Z12	X13	Y13	Z13	X14	Y14	Z14	X15	Y15	Z15	X16	Y16	Z16	X17	Y17	Z17	X18	Y18	Z18	X19	Y19	Z19	X20	Y20	Z20	X21	Y21	Z21	X22	Y22	Z22	X23	Y23	Z23	X24	Y24	Z24	X25	Y25	Z25	X26	Y26	Z26	X27	Y27	Z27	X28	Y28	Z28	X29	Y29	Z29	X30	Y30	Z30	X31	Y31	Z31	X32	Y32	Z32	X33	Y33	Z33	X34	Y34	Z34	X35	Y35	Z35	X36	Y36	Z36	X37	Y37	Z37	X38	Y38	Z38	X39	Y39	Z39	X40	Y40	Z40	X41	Y41	Z41	X42	Y42	Z42	X43	Y43	Z43	X44	Y44	Z44	X45	Y45	Z45	X46	Y46	Z46	X47	Y47	Z47	X48	Y48	Z48	X49	Y49	Z49	X50	Y50	Z50	X51	Y51	Z51	

657	6.56000000	-83.86005	465.45041	-366.90050	-76.33583	389.80425	-339.16210	-284.16571	104.09870	-389.08366	-345.36010	54.16297	-436.47172	-159.46920	37.66676	-321.75224	-117.26705	61.88381	-376.69937	-83.98921	462.71757	-930.69670	-91.42014	356.73394	-946.11612	-283.61792	102.31696	-873.07483	-349.08594	54.96160	-822.74048	-154.63770	32.25823	-950.88771	-116.25988	57.28638	-892.67959	-134.61743	292.85057	-343.76846	-140.47507	429.16096	-344.51106	-206.52258	332.78511	-351.35222	-163.83546	409.00702	-933.68008	-221.89001	303.70605	-919.46740	-304.41798	676.23777	-404.57978	-206.16049	633.39845	-389.12459	-210.09991	573.03117	-355.27218	-348.92140	569.30745	-407.69855	-242.26171	531.15365	-380.48378	-301.32335	672.54700	-845.48216	-182.67145	616.80208	-890.40340	-355.24058	566.35733	-854.11519	-231.48290	522.43291	-899.66031	-301.40765	704.89072	-487.85009	-451.38586	805.16839	-587.48015	-284.63330	685.32654	-751.00994	-444.33117	797.19911	-686.60331	-118.33469	1177.34257	-588.06672	-104.62756	1103.36740	-418.25986	-52.82112	1123.02340	-744.06386	-13.38308	1045.24719	-545.71751	-6.06477	1046.57234	-601.25964	-268.56073	898.63232	-322.98258	-339.36308	822.64482	-397.68928	-333.00441	833.71396	-309.14819	-273.21509	685.28341	-281.59544	-226.42110	583.08187	-280.15883	-269.93381	574.83045	-271.21053	-195.74500	938.41626	-877.38244	-286.57291	868.67883	-835.08472	-265.06013	884.26100	-904.64775	-231.27376	719.29682	-962.31283	-197.43337	629.06432	-977.64298	-235.81764	622.35199	-984.42462	-405.62511	661.85905	-500.92431	-388.72556	644.33641	-730.00247	-396.14559	659.41843	-528.79917	-383.79581	645.46859	-702.31783	
658	6.57000000	-84.49046	465.86144	-367.59829	-77.01077	390.32048	-339.65488	-284.25172	104.14305	-389.00095	-345.38837	54.10377	-436.45776	-159.52518	37.67939	-321.72208	-117.31680	61.90796	-376.61244	-84.43267	462.87881	-930.13513	-91.95009	357.10751	-946.21705	-283.73099	102.30437	-873.18183	-349.07719	54.97502	-822.75196	-154.63884	32.27554	-950.88216	-116.26749	57.32801	-892.67036	-135.30852	293.21604	-343.93773	-140.86545	429.82443	-344.58443	-207.01947	333.22940	-351.63662	-164.42993	409.34590	-933.66115	-222.38057	303.89471	-919.46433	-304.64610	677.32048	-405.08462	-206.42840	634.31349	-389.54072	-210.84458	573.50368	-356.42468	-349.38043	570.62127	-408.08675	-242.84979	532.32046	-380.71651	-301.46810	673.61175	-845.79849	-182.91259	617.60571	-890.61597	-355.62095	567.59452	-854.26697	-231.93708	523.28645	-899.68465	-301.70917	706.27692	-488.18320	-451.72718	806.62424	-587.72973	-284.87387	686.82730	-751.25421	-444.53380	798.83404	-686.82884	-118.57550	1178.87736	-587.58880	-104.93441	1104.60951	-417.72007	-52.97608	1124.73616	-743.61584	-13.71396	1046.62717	-545.34723	-6.30696	1048.04775	-601.04907	-269.11457	899.77272	-322.98416	-340.17277	823.84288	-397.55994	-333.59313	835.01221	-309.25354	-274.11890	686.34329	-281.92722	-227.53502	584.04203	-280.70471	-271.00050	575.77536	-271.73864	-195.89204	940.37284	-877.19326	-286.77408	870.58918	-835.13192	-265.21211	886.32889	-904.58771	-231.62397	721.34431	-962.32809	-198.04155	630.94875	-977.64094	-236.45905	624.52625	-984.67429	-405.96815	663.27814	-501.25833	-389.00446	645.90856	-730.34335	-396.49397	660.63009	-529.31939	-383.90240	646.99426	-702.78393	
659	6.58000000	-85.17563	466.41001	-368.11270	-77.63766	390.85854	-339.94623	-284.29274	104.12032	-389.00165	-345.40565	54.04614	-436.40877	-159.57377	37.65175	-321.69064	-117.32709	61.94231	-376.55173	-84.90722	463.45993	-930.15759	-92.41600	357.42518	-946.21211	-283.82785	102.35655	-873.36594	-349.08710	54.98021	-822.74223	-154.63381	32.29378	-950.86945	-116.25458	57.39551	-892.67605	-135.87654	293.57452	-344.13881	-141.37398	430.35208	-344.63535	-207.45407	333.62292	-351.92175	-165.03736	409.53320	-933.46742	-222.89100	303.90963	-919.25499	-304.72175	678.52156	-405.61673	-206.67987	635.22780	-389.90372	-211.51740	573.67051	-357.63641	-349.85621	571.98966	-408.39838	-243.59305	533.55712	-380.79939	-301.60233	674.92911	-846.10258	-183.16698	618.48825	-890.82192	-355.94894	568.87973	-854.28736	-232.30442	524.27235	-899.56174	-302.14622	707.57457	-488.55458	-452.00463	808.22130	-587.94221	-285.09923	688.34375	-751.65337	-444.67264	800.51188	-687.18895	-118.81562	1180.43693	-587.14277	-105.23179	1105.79459	-417.21812	-53.05462	1126.45727	-743.17327	-14.03763	1048.01239	-544.99290	-6.46744	1049.60284	-600.61061	-269.71037	901.05114	-323.00063	-340.51856	825.18484	-397.66112	-334.27375	836.34091	-309.39237	-275.07404	687.49124	-282.26806	-228.67395	585.13754	-281.22998	-272.05369	576.86427	-272.26521	-195.95873	942.41444	-877.25487	-286.99150	872.54209	-835.04347	-265.35850	888.45375	-904.52602	-231.98642	723.41526	-962.37471	-198.67466	632.96797	-977.80856	-237.11931	626.59973	-984.83851	-406.42716	664.69896	-501.71579	-389.33882	647.57065	-730.80967	-396.99106	662.04224	-529.87271	-384.17527	648.56655	-703.35068	
660	6.59000000	-85.98228	466.96038	-368.65851	-78.28407	391.50959	-340.10617	-284.35096	104.10777	-388.99058	-345.42301	54.00607	-436.36078	-159.58767	37.58751	-321.65967	-117.31703	61.95710	-376.52323	-85.52596	464.18824	-930.61870	-92.91567	357.73129	-946.11086	-283.88549	102.42852	-873.55146	-349.11308	54.97796	-822.74200	-154.62617	32.31230	-950.85648	-116.24011	57.47715	-892.69522	-136.17381	294.07098	-344.44324	-142.09396	430.77837	-344.83849	-207.90584	333.97591	-352.26646	-165.63024	409.66250	-933.26350	-223.35216	303.85052	-918.97324	-304.77519	679.77235	-406.04586	-206.92127	636.13864	-390.22537	-211.94321	574.09736	-358.39538	-350.25687	573.30981	-409.06232	-244.32514	534.75579	-381.27849	-301.75435	676.22508	-846.53694	-183.40794	619.34614	-891.03030	-356.27252	570.19152	-854.53370	-232.61847	525.28967	-899.52940	-302.58761	708.95939	-488.92534	-452.17115	810.05573	-588.19819	-285.31259	689.82706	-751.94166	-444.77555	802.17439	-687.65677	-119.07944	1182.00410	-586.62798	-105.53240	1107.01395	-416.85168	-53.13892	1128.21562	-742.67467	-14.34511	1049.48391	-544.62663	-6.66218	1051.23147	-600.05481	-270.34357	902.44712	-323.02655	-340.61372	826.51083	-398.26251	-334.99224	837.69475	-309.59274	-276.03591	688.70843	-282.69980	-229.83587	586.24056	-281.85286	-273.23476	578.06418	-272.90568	-196.02454	944.44440	-877.19920	-287.25021	874.64601	-834.94026	-265.48266	890.60086	-904.57284	-232.38459	725.61927	-962.61092	-199.31828	635.11219	-978.18783	-237.73443	628.75781	-985.14697	-406.91877	666.31095	-502.12041	-389.68691	649.23381	-731.20731	-397.48906	663.94836	-530.25688	-384.59494	650.20821	-703.65844	
